<mxfile host="app.diagrams.net" modified="2024-05-09T12:36:42.754Z" agent="Mozilla/5.0 (X11; Ubuntu; Linux x86_64; rv:124.0) Gecko/20100101 Firefox/124.0" etag="YUdJ4O2faclnRBqdSivZ" version="21.6.8" type="github">
  <diagram name="Page-1" id="wlakbD712wwlNp6-Xunv">
    <mxGraphModel dx="1434" dy="766" grid="1" gridSize="10" guides="1" tooltips="1" connect="1" arrows="1" fold="1" page="1" pageScale="1" pageWidth="850" pageHeight="1100" math="0" shadow="0">
      <root>
        <mxCell id="0" />
        <mxCell id="1" parent="0" />
        <mxCell id="bZQcsfnl17OWeuW7Iqxn-1" value="RaspberryPi&lt;br&gt;" style="whiteSpace=wrap;html=1;aspect=fixed;fillColor=#fff2cc;strokeColor=#d6b656;" vertex="1" parent="1">
          <mxGeometry x="120" y="40" width="80" height="80" as="geometry" />
        </mxCell>
        <mxCell id="bZQcsfnl17OWeuW7Iqxn-4" value="&lt;div align=&quot;left&quot;&gt;&lt;b&gt;Admin Dashboard&lt;/b&gt;&lt;br&gt;- User registration bekommt public Key&lt;/div&gt;" style="rounded=1;whiteSpace=wrap;html=1;fillColor=#d5e8d4;strokeColor=#82b366;align=left;" vertex="1" parent="1">
          <mxGeometry x="40" y="130" width="210" height="70" as="geometry" />
        </mxCell>
        <mxCell id="bZQcsfnl17OWeuW7Iqxn-5" value="&lt;div align=&quot;left&quot;&gt;&lt;b&gt;Rest API&lt;/b&gt;&lt;br&gt;- POST data&lt;/div&gt;&lt;div align=&quot;left&quot;&gt;- Authentication public key&lt;br&gt;&lt;/div&gt;" style="rounded=1;whiteSpace=wrap;html=1;fillColor=#d5e8d4;strokeColor=#82b366;align=left;" vertex="1" parent="1">
          <mxGeometry x="40" y="210" width="210" height="90" as="geometry" />
        </mxCell>
        <mxCell id="bZQcsfnl17OWeuW7Iqxn-7" value="Android (IOS) -Phone" style="whiteSpace=wrap;html=1;aspect=fixed;fillColor=#e1d5e7;strokeColor=#9673a6;" vertex="1" parent="1">
          <mxGeometry x="610" y="10" width="80" height="80" as="geometry" />
        </mxCell>
        <mxCell id="bZQcsfnl17OWeuW7Iqxn-9" value="&lt;b&gt;App&lt;br&gt;&lt;/b&gt;- makes backup regularly" style="rounded=1;whiteSpace=wrap;html=1;fillColor=#d5e8d4;strokeColor=#82b366;align=left;" vertex="1" parent="1">
          <mxGeometry x="560" y="100" width="210" height="70" as="geometry" />
        </mxCell>
        <mxCell id="bZQcsfnl17OWeuW7Iqxn-10" value="Web-App" style="whiteSpace=wrap;html=1;aspect=fixed;fillColor=#e1d5e7;strokeColor=#9673a6;" vertex="1" parent="1">
          <mxGeometry x="610" y="200" width="80" height="80" as="geometry" />
        </mxCell>
        <mxCell id="bZQcsfnl17OWeuW7Iqxn-11" value="- make backups for computer&lt;br&gt;- how to make an automated backup with such an application?" style="rounded=1;whiteSpace=wrap;html=1;fillColor=#d5e8d4;strokeColor=#82b366;align=left;" vertex="1" parent="1">
          <mxGeometry x="510" y="290" width="320" height="70" as="geometry" />
        </mxCell>
        <mxCell id="bZQcsfnl17OWeuW7Iqxn-12" value="CLI" style="whiteSpace=wrap;html=1;aspect=fixed;fillColor=#e1d5e7;strokeColor=#9673a6;" vertex="1" parent="1">
          <mxGeometry x="620" y="400" width="80" height="80" as="geometry" />
        </mxCell>
        <mxCell id="bZQcsfnl17OWeuW7Iqxn-13" value="- make backups for computer&lt;br&gt;" style="rounded=1;whiteSpace=wrap;html=1;fillColor=#d5e8d4;strokeColor=#82b366;align=left;" vertex="1" parent="1">
          <mxGeometry x="520" y="490" width="320" height="50" as="geometry" />
        </mxCell>
        <mxCell id="bZQcsfnl17OWeuW7Iqxn-15" value="Routes Admin Dashboard" style="swimlane;whiteSpace=wrap;html=1;fillColor=#f8cecc;strokeColor=#b85450;" vertex="1" parent="1">
          <mxGeometry x="40" y="320" width="200" height="130" as="geometry" />
        </mxCell>
        <mxCell id="bZQcsfnl17OWeuW7Iqxn-16" value="&lt;div align=&quot;left&quot;&gt;- POST new USER&lt;br&gt;- GET all users&lt;/div&gt;&lt;div align=&quot;left&quot;&gt;- PUTS update USER&lt;/div&gt;&lt;div align=&quot;left&quot;&gt;- GET is user data unique&lt;/div&gt;&lt;div align=&quot;left&quot;&gt;- DELETE USER&lt;/div&gt;&lt;div align=&quot;left&quot;&gt;- POST restart Pi&lt;/div&gt;&lt;div align=&quot;left&quot;&gt;- GET status of Pi&lt;br&gt;&lt;/div&gt;" style="text;html=1;align=left;verticalAlign=middle;resizable=0;points=[];autosize=1;strokeColor=none;fillColor=none;" vertex="1" parent="bZQcsfnl17OWeuW7Iqxn-15">
          <mxGeometry x="12" y="22" width="160" height="110" as="geometry" />
        </mxCell>
        <mxCell id="bZQcsfnl17OWeuW7Iqxn-19" value="Routes Rest API" style="swimlane;whiteSpace=wrap;html=1;fillColor=#f8cecc;strokeColor=#b85450;" vertex="1" parent="1">
          <mxGeometry x="40" y="488" width="200" height="90" as="geometry" />
        </mxCell>
        <mxCell id="bZQcsfnl17OWeuW7Iqxn-20" value="&lt;div align=&quot;left&quot;&gt;- POST new USER&lt;br&gt;- GET all users&lt;/div&gt;&lt;div align=&quot;left&quot;&gt;- PUTS update USER&lt;/div&gt;&lt;div align=&quot;left&quot;&gt;- GET is user data unique&lt;br&gt;&lt;/div&gt;" style="text;html=1;align=left;verticalAlign=middle;resizable=0;points=[];autosize=1;strokeColor=none;fillColor=none;" vertex="1" parent="bZQcsfnl17OWeuW7Iqxn-19">
          <mxGeometry x="12" y="23" width="160" height="70" as="geometry" />
        </mxCell>
      </root>
    </mxGraphModel>
  </diagram>
</mxfile>
